<svg xmlns="http://www.w3.org/2000/svg" viewBox="0 0 800 480" width="100%" height="100%">
    <rect width="800" height="480" fill="#ffffff"/>

    <text x="40" y="35" font-family="Segoe UI, sans-serif" font-size="16" font-weight="700" fill="#0f172a">Permutation Feature Importance (Elastic Net)</text>
    <text x="40" y="55" font-family="Segoe UI, sans-serif" font-size="12" font-weight="400" fill="#64748b">Optimized Pure Lasso Baseline (l1_ratio: 1.0) | Target: Mean Telomere Length</text>
    <line x1="40" y1="65" x2="760" y2="65" stroke="#cbd5e1" stroke-width="1"/>

    <g stroke="#f1f5f9" stroke-width="1">
        <line x1="200" y1="65" x2="200" y2="440"/>
        <line x1="340" y1="65" x2="340" y2="440"/>
        <line x1="480" y1="65" x2="480" y2="440"/>
        <line x1="620" y1="65" x2="620" y2="440"/>
        <line x1="760" y1="65" x2="760" y2="440"/>
    </g>

    <g font-family="Segoe UI, sans-serif" font-size="11" fill="#64748b" text-anchor="middle">
        <text x="200" y="455">0.00</text>
        <text x="340" y="455">0.10</text>
        <text x="480" y="455">0.20</text>
        <text x="620" y="455">0.30</text>
        <text x="760" y="455">0.40</text>
    </g>

    <g transform="translate(0, 80)">
        <text x="185" y="15" font-family="Segoe UI, sans-serif" font-size="12" font-weight="600" fill="#334155" text-anchor="end">Chronological Age</text>
        <rect x="200" y="2" width="425" height="16" rx="2" fill="#2563eb"/>
        <line x1="611" y1="10" x2="639" y2="10" stroke="#0f172a" stroke-width="1.5"/>
        <line x1="611" y1="6" x2="611" y2="14" stroke="#0f172a" stroke-width="1.5"/>
        <line x1="639" y1="6" x2="639" y2="14" stroke="#0f172a" stroke-width="1.5"/>
        <text x="650" y="14" font-family="monospace" font-size="11" fill="#475569">0.3036</text>
    </g>

    <g transform="translate(0, 115)">
        <text x="185" y="15" font-family="Segoe UI, sans-serif" font-size="12" font-weight="500" fill="#334155" text-anchor="end">Race / Ethnicity</text>
        <rect x="200" y="2" width="25.3" height="16" rx="2" fill="#4f46e5"/>
        <line x1="221.8" y1="10" x2="228.8" y2="10" stroke="#0f172a" stroke-width="1.5"/>
        <text x="238" y="14" font-family="monospace" font-size="11" fill="#475569">0.0181</text>
    </g>

    <g transform="translate(0, 150)">
        <text x="185" y="15" font-family="Segoe UI, sans-serif" font-size="12" font-weight="400" fill="#475569" text-anchor="end">Marital Status</text>
        <rect x="200" y="2" width="6.4" height="16" rx="2" fill="#6366f1"/>
        <text x="215" y="14" font-family="monospace" font-size="11" fill="#64748b">0.0046</text>
    </g>

    <g transform="translate(0, 185)">
        <text x="185" y="15" font-family="Segoe UI, sans-serif" font-size="12" font-weight="400" fill="#475569" text-anchor="end">Household Size</text>
        <rect x="200" y="2" width="6.0" height="16" rx="2" fill="#6366f1"/>
        <text x="215" y="14" font-family="monospace" font-size="11" fill="#64748b">0.0043</text>
    </g>

    <g transform="translate(0, 220)">
        <text x="185" y="15" font-family="Segoe UI, sans-serif" font-size="12" font-weight="400" fill="#475569" text-anchor="end">Gender</text>
        <rect x="200" y="2" width="4.9" height="16" rx="2" fill="#6366f1"/>
        <text x="215" y="14" font-family="monospace" font-size="11" fill="#64748b">0.0035</text>
    </g>

    <g transform="translate(0, 255)">
        <text x="185" y="15" font-family="Segoe UI, sans-serif" font-size="12" font-weight="600" fill="#0f172a" text-anchor="end">Waist Circumference</text>
        <rect x="200" y="2" width="4.8" height="16" rx="2" fill="#0d9488"/>
        <text x="215" y="14" font-family="monospace" font-size="11" fill="#64748b">0.0034</text>
    </g>

    <g transform="translate(0, 290)">
        <text x="185" y="15" font-family="Segoe UI, sans-serif" font-size="12" font-weight="400" fill="#475569" text-anchor="end">Income-to-Poverty Ratio</text>
        <rect x="200" y="2" width="3.5" height="16" rx="2" fill="#6366f1"/>
        <text x="215" y="14" font-family="monospace" font-size="11" fill="#64748b">0.0025</text>
    </g>

    <g transform="translate(0, 325)">
        <text x="185" y="15" font-family="Segoe UI, sans-serif" font-size="12" font-weight="600" fill="#0f172a" text-anchor="end">C-Reactive Protein</text>
        <rect x="200" y="2" width="3.2" height="16" rx="2" fill="#0d9488"/>
        <text x="215" y="14" font-family="monospace" font-size="11" fill="#64748b">0.0023</text>
    </g>

    <g transform="translate(0, 360)">
        <text x="185" y="15" font-family="Segoe UI, sans-serif" font-size="12" font-weight="400" fill="#64748b" text-anchor="end">Systolic Blood Pressure</text>
        <rect x="200" y="2" width="1.3" height="16" rx="2" fill="#0d9488"/>
    </g>

    <g transform="translate(0, 395)">
        <text x="185" y="15" font-family="Segoe UI, sans-serif" font-size="12" font-weight="400" fill="#64748b" text-anchor="end">Education Level</text>
        <rect x="200" y="2" width="0.7" height="16" rx="2" fill="#6366f1"/>
    </g>

    <line x1="200" y1="65" x2="200" y2="440" stroke="#475569" stroke-width="1.5"/>
    
    <g transform="translate(480, 415)" font-family="Segoe UI, sans-serif" font-size="11" font-weight="500">
        <rect width="12" height="12" rx="2" fill="#6366f1"/>
        <text x="18" y="10" fill="#475569">Socioeconomic / Demographics</text>
        
        <rect x="185" width="12" height="12" rx="2" fill="#0d9488"/>
        <text x="203" y="10" fill="#475569">Clinical / Biomarkers</text>
    </g>
</svg>
